<svg width="16" height="14" viewBox="0 0 16 14" fill="none" xmlns="http://www.w3.org/2000/svg">
<path d="M14.6495 10.353V6.20049L14.768 6.13149C15.0195 5.98549 15.1695 5.72499 15.1695 5.43449C15.1695 5.14399 15.0195 4.88299 14.768 4.73699L8.68955 1.20599C8.17805 0.907994 7.54155 0.908494 7.03005 1.20599L0.951049 4.73749C0.700049 4.88349 0.550049 5.14399 0.550049 5.43449C0.550049 5.72499 0.700049 5.98549 0.951049 6.13199L2.79405 7.20299V9.69249C2.79405 10.2705 3.10505 10.808 3.60505 11.0965L6.14205 12.559C6.67155 12.864 7.26555 13.017 7.85955 13.017C8.45355 13.017 9.04705 12.8645 9.57705 12.559L12.1135 11.0965C12.614 10.8085 12.925 10.2705 12.925 9.69249V7.20249L13.7495 6.72349V10.353C13.538 10.497 13.399 10.7395 13.399 11.015C13.399 11.457 13.7575 11.8155 14.1995 11.8155C14.6415 11.8155 15 11.457 15 11.015C15 10.74 14.861 10.4975 14.6495 10.353ZM12.0255 9.69199H12.025C12.025 9.94899 11.8875 10.188 11.6645 10.316L9.12805 11.7785C8.34605 12.229 7.37355 12.229 6.59205 11.7785L4.05505 10.316C3.83255 10.188 3.69455 9.94899 3.69455 9.69199V7.72549L7.03005 9.66349C7.28605 9.81199 7.57305 9.88649 7.86005 9.88649C8.14705 9.88649 8.43405 9.81249 8.69005 9.66349L12.0255 7.72549V9.69199ZM8.23755 8.88549C8.00455 9.02099 7.71505 9.02099 7.48205 8.88549L1.54255 5.43449L7.48155 1.98349C7.71455 1.84799 8.00405 1.84799 8.23705 1.98349L14.1765 5.43399L8.23755 8.88549Z" fill="#9A9A9A"/>
</svg>
